<svg width="207" height="41" viewBox="0 0 207 41" fill="none" xmlns="http://www.w3.org/2000/svg">
<path d="M-7.15256e-06 31.1201V1.32011H3.91999V31.1201H-7.15256e-06ZM10.1069 31.1201V0.840116H13.8269V31.1201H10.1069ZM27.2391 31.6001C25.6924 31.6001 24.2924 31.2401 23.0391 30.5201C21.8124 29.8001 20.8524 28.8001 20.1591 27.5201C19.4924 26.2135 19.1591 24.7201 19.1591 23.0401V9.56012H22.8791V22.6401C22.8791 23.7068 23.0924 24.6401 23.5191 25.4401C23.9724 26.2401 24.5857 26.8668 25.3591 27.3201C26.1591 27.7735 27.0657 28.0001 28.0791 28.0001C29.0924 28.0001 29.9857 27.7735 30.7591 27.3201C31.5591 26.8668 32.1724 26.2135 32.5991 25.3601C33.0524 24.5068 33.2791 23.4934 33.2791 22.3201V9.56012H37.0391V31.1201H33.3991V26.9201L33.9991 27.2801C33.4924 28.6401 32.6257 29.7068 31.3991 30.4801C30.1991 31.2268 28.8124 31.6001 27.2391 31.6001ZM50.5222 31.6001C48.3622 31.6001 46.4822 31.0668 44.8822 30.0001C43.2822 28.9335 42.1488 27.4935 41.4822 25.6801L44.4422 24.2401C45.0555 25.5201 45.8955 26.5335 46.9622 27.2801C48.0288 28.0268 49.2155 28.4001 50.5222 28.4001C51.6955 28.4001 52.6688 28.1201 53.4422 27.5601C54.2155 27.0001 54.6022 26.2668 54.6022 25.3601C54.6022 24.7201 54.4155 24.2135 54.0422 23.8401C53.6955 23.4401 53.2688 23.1335 52.7622 22.9201C52.2555 22.6801 51.7888 22.5068 51.3622 22.4001L48.1222 21.4801C46.1755 20.9201 44.7488 20.1201 43.8422 19.0801C42.9622 18.0401 42.5222 16.8268 42.5222 15.4401C42.5222 14.1601 42.8422 13.0534 43.4822 12.1201C44.1488 11.1601 45.0422 10.4134 46.1622 9.88012C47.3088 9.34678 48.5888 9.08012 50.0022 9.08012C51.8955 9.08012 53.5888 9.56012 55.0822 10.5201C56.6022 11.4801 57.6822 12.8268 58.3222 14.5601L55.2822 15.9601C54.8022 14.8401 54.0822 13.9601 53.1222 13.3201C52.1622 12.6534 51.0822 12.3201 49.8822 12.3201C48.7888 12.3201 47.9222 12.6001 47.2822 13.1601C46.6422 13.6934 46.3222 14.3734 46.3222 15.2001C46.3222 15.8134 46.4822 16.3201 46.8022 16.7201C47.1222 17.0934 47.5088 17.3868 47.9622 17.6001C48.4155 17.7868 48.8555 17.9468 49.2822 18.0801L52.8022 19.1201C54.5622 19.6268 55.9222 20.4134 56.8822 21.4801C57.8688 22.5468 58.3622 23.8268 58.3622 25.3201C58.3622 26.5201 58.0288 27.6001 57.3622 28.5601C56.6955 29.5201 55.7755 30.2668 54.6022 30.8001C53.4288 31.3335 52.0688 31.6001 50.5222 31.6001ZM71.9919 31.3601C69.8852 31.3601 68.2585 30.7601 67.1119 29.5601C65.9919 28.3601 65.4319 26.6668 65.4319 24.4801V13.1201H61.5119V9.56012H62.3119C63.2719 9.56012 64.0319 9.26678 64.5919 8.68012C65.1519 8.09345 65.4319 7.32012 65.4319 6.36012V4.60012H69.1519V9.56012H73.9919V13.1201H69.1519V24.3601C69.1519 25.0801 69.2585 25.7068 69.4719 26.2401C69.7119 26.7735 70.0985 27.2001 70.6319 27.5201C71.1652 27.8135 71.8719 27.9601 72.7519 27.9601C72.9385 27.9601 73.1652 27.9468 73.4319 27.9201C73.7252 27.8935 73.9919 27.8668 74.2319 27.8401V31.1201C73.8852 31.2001 73.4985 31.2535 73.0719 31.2801C72.6452 31.3335 72.2852 31.3601 71.9919 31.3601ZM79.0912 31.1201V9.56012H82.7312V13.5201L82.3312 12.9601C82.8379 11.7335 83.6112 10.8268 84.6512 10.2401C85.6912 9.62678 86.9579 9.32012 88.4512 9.32012H89.7712V12.8401H87.8912C86.3712 12.8401 85.1446 13.3201 84.2112 14.2801C83.2779 15.2134 82.8112 16.5468 82.8112 18.2801V31.1201H79.0912ZM99.3956 31.6001C97.9823 31.6001 96.729 31.3468 95.6356 30.8401C94.569 30.3068 93.729 29.5868 93.1156 28.6801C92.5023 27.7468 92.1956 26.6801 92.1956 25.4801C92.1956 24.3335 92.4356 23.3068 92.9156 22.4001C93.4223 21.4668 94.1956 20.6801 95.2356 20.0401C96.3023 19.4001 97.6356 18.9468 99.2356 18.6801L107.236 17.3601V20.4801L100.076 21.6801C98.689 21.9201 97.6756 22.3601 97.0356 23.0001C96.4223 23.6401 96.1156 24.4268 96.1156 25.3601C96.1156 26.2401 96.4623 26.9735 97.1556 27.5601C97.8756 28.1468 98.769 28.4401 99.8356 28.4401C101.196 28.4401 102.369 28.1601 103.356 27.6001C104.369 27.0135 105.156 26.2268 105.716 25.2401C106.302 24.2535 106.596 23.1601 106.596 21.9601V16.4801C106.596 15.3068 106.156 14.3601 105.276 13.6401C104.422 12.8934 103.289 12.5201 101.876 12.5201C100.649 12.5201 99.5556 12.8401 98.5956 13.4801C97.6623 14.0934 96.969 14.9201 96.5156 15.9601L93.2756 14.2801C93.6756 13.2934 94.3156 12.4134 95.1956 11.6401C96.0756 10.8401 97.1023 10.2134 98.2756 9.76012C99.449 9.30678 100.676 9.08012 101.956 9.08012C103.609 9.08012 105.062 9.40012 106.316 10.0401C107.569 10.6535 108.542 11.5201 109.236 12.6401C109.956 13.7334 110.316 15.0134 110.316 16.4801V31.1201H106.676V27.0401L107.356 27.2801C106.902 28.1335 106.289 28.8801 105.516 29.5201C104.742 30.1601 103.836 30.6668 102.796 31.0401C101.756 31.4135 100.622 31.6001 99.3956 31.6001ZM126.083 31.6001C123.977 31.6001 122.097 31.1068 120.443 30.1201C118.817 29.1335 117.537 27.7868 116.603 26.0801C115.67 24.3735 115.203 22.4535 115.203 20.3201C115.203 18.1601 115.67 16.2401 116.603 14.5601C117.537 12.8801 118.817 11.5468 120.443 10.5601C122.097 9.57345 123.977 9.08012 126.083 9.08012C127.497 9.08012 128.817 9.33345 130.043 9.84012C131.27 10.3468 132.35 11.0268 133.283 11.8801C134.217 12.7334 134.897 13.7334 135.323 14.8801L132.003 16.4801C131.497 15.3601 130.723 14.4534 129.683 13.7601C128.643 13.0401 127.443 12.6801 126.083 12.6801C124.777 12.6801 123.59 13.0134 122.523 13.6801C121.483 14.3468 120.657 15.2534 120.043 16.4001C119.43 17.5468 119.123 18.8668 119.123 20.3601C119.123 21.8001 119.43 23.1068 120.043 24.2801C120.657 25.4268 121.483 26.3335 122.523 27.0001C123.59 27.6668 124.777 28.0001 126.083 28.0001C127.443 28.0001 128.643 27.6535 129.683 26.9601C130.723 26.2401 131.497 25.2935 132.003 24.1201L135.323 25.8001C134.897 26.9201 134.217 27.9201 133.283 28.8001C132.35 29.6535 131.27 30.3335 130.043 30.8401C128.817 31.3468 127.497 31.6001 126.083 31.6001ZM126.563 40.4001C125.817 40.4001 125.043 40.2668 124.243 40.0001C123.443 39.7601 122.79 39.4268 122.283 39.0001L123.203 36.5601C123.603 36.9068 124.057 37.1735 124.563 37.3601C125.07 37.5468 125.563 37.6401 126.043 37.6401C126.63 37.6401 127.097 37.4935 127.443 37.2001C127.79 36.9335 127.963 36.5735 127.963 36.1201C127.963 35.5335 127.657 35.0668 127.043 34.7201C126.43 34.4001 125.457 34.1601 124.123 34.0001L125.043 30.7201H127.483L127.043 32.5201C128.43 32.7868 129.483 33.2535 130.203 33.9201C130.95 34.5868 131.323 35.4001 131.323 36.3601C131.323 37.5601 130.87 38.5335 129.963 39.2801C129.083 40.0268 127.95 40.4001 126.563 40.4001ZM150.425 31.6001C148.345 31.6001 146.465 31.1201 144.785 30.1601C143.105 29.1735 141.772 27.8268 140.785 26.1201C139.798 24.4135 139.305 22.4801 139.305 20.3201C139.305 18.1601 139.785 16.2401 140.745 14.5601C141.732 12.8801 143.065 11.5468 144.745 10.5601C146.425 9.57345 148.318 9.08012 150.425 9.08012C152.505 9.08012 154.385 9.57345 156.065 10.5601C157.745 11.5201 159.065 12.8401 160.025 14.5201C161.012 16.2001 161.505 18.1334 161.505 20.3201C161.505 22.5068 160.998 24.4535 159.985 26.1601C158.972 27.8401 157.625 29.1735 155.945 30.1601C154.292 31.1201 152.452 31.6001 150.425 31.6001ZM150.425 28.0001C151.758 28.0001 152.958 27.6668 154.025 27.0001C155.118 26.3335 155.972 25.4135 156.585 24.2401C157.225 23.0668 157.545 21.7601 157.545 20.3201C157.545 18.8534 157.225 17.5601 156.585 16.4401C155.972 15.2934 155.118 14.3868 154.025 13.7201C152.958 13.0268 151.758 12.6801 150.425 12.6801C149.065 12.6801 147.838 13.0268 146.745 13.7201C145.678 14.3868 144.825 15.2934 144.185 16.4401C143.545 17.5601 143.225 18.8534 143.225 20.3201C143.225 21.7601 143.545 23.0668 144.185 24.2401C144.825 25.4135 145.678 26.3335 146.745 27.0001C147.838 27.6668 149.065 28.0001 150.425 28.0001ZM152.945 5.52012C152.225 5.52012 151.638 5.40012 151.185 5.16012C150.758 4.92012 150.385 4.64012 150.065 4.32012C149.745 4.00012 149.425 3.72012 149.105 3.48012C148.785 3.24012 148.398 3.12012 147.945 3.12012C147.518 3.12012 147.172 3.29345 146.905 3.64012C146.665 3.96012 146.545 4.53345 146.545 5.36012H143.545C143.545 3.57345 143.932 2.24012 144.705 1.36012C145.505 0.453449 146.532 0.000114918 147.785 0.000114918C148.505 0.000114918 149.092 0.120115 149.545 0.360115C149.998 0.600115 150.385 0.880116 150.705 1.20012C151.025 1.52012 151.332 1.80011 151.625 2.04011C151.945 2.28011 152.332 2.40012 152.785 2.40012C153.265 2.40012 153.638 2.21345 153.905 1.84012C154.172 1.44012 154.305 0.880116 154.305 0.160115H157.265C157.265 1.81345 156.865 3.12012 156.065 4.08011C155.265 5.04012 154.225 5.52012 152.945 5.52012ZM176.277 31.6001C174.197 31.6001 172.344 31.1068 170.717 30.1201C169.09 29.1335 167.81 27.7868 166.877 26.0801C165.944 24.3468 165.477 22.4134 165.477 20.2801C165.477 18.1201 165.93 16.2001 166.837 14.5201C167.77 12.8401 169.024 11.5201 170.597 10.5601C172.197 9.57345 173.984 9.08012 175.957 9.08012C177.557 9.08012 178.97 9.37345 180.197 9.96012C181.45 10.5201 182.504 11.2934 183.357 12.2801C184.237 13.2401 184.904 14.3468 185.357 15.6001C185.837 16.8268 186.077 18.1068 186.077 19.4401C186.077 19.7334 186.05 20.0668 185.997 20.4401C185.97 20.7868 185.93 21.1201 185.877 21.4401H168.197V18.2401H183.717L181.957 19.6801C182.197 18.2934 182.064 17.0534 181.557 15.9601C181.05 14.8668 180.304 14.0001 179.317 13.3601C178.33 12.7201 177.21 12.4001 175.957 12.4001C174.704 12.4001 173.557 12.7201 172.517 13.3601C171.477 14.0001 170.664 14.9201 170.077 16.1201C169.517 17.2934 169.29 18.6934 169.397 20.3201C169.29 21.8935 169.53 23.2801 170.117 24.4801C170.73 25.6535 171.584 26.5735 172.677 27.2401C173.797 27.8801 175.01 28.2001 176.317 28.2001C177.757 28.2001 178.97 27.8668 179.957 27.2001C180.944 26.5335 181.744 25.6801 182.357 24.6401L185.477 26.2401C185.05 27.2268 184.384 28.1335 183.477 28.9601C182.597 29.7601 181.544 30.4001 180.317 30.8801C179.117 31.3601 177.77 31.6001 176.277 31.6001ZM198.647 31.6001C196.487 31.6001 194.607 31.0668 193.007 30.0001C191.407 28.9335 190.274 27.4935 189.607 25.6801L192.567 24.2401C193.181 25.5201 194.021 26.5335 195.087 27.2801C196.154 28.0268 197.341 28.4001 198.647 28.4001C199.821 28.4001 200.794 28.1201 201.567 27.5601C202.341 27.0001 202.727 26.2668 202.727 25.3601C202.727 24.7201 202.541 24.2135 202.167 23.8401C201.821 23.4401 201.394 23.1335 200.887 22.9201C200.381 22.6801 199.914 22.5068 199.487 22.4001L196.247 21.4801C194.301 20.9201 192.874 20.1201 191.967 19.0801C191.087 18.0401 190.647 16.8268 190.647 15.4401C190.647 14.1601 190.967 13.0534 191.607 12.1201C192.274 11.1601 193.167 10.4134 194.287 9.88012C195.434 9.34678 196.714 9.08012 198.127 9.08012C200.021 9.08012 201.714 9.56012 203.207 10.5201C204.727 11.4801 205.807 12.8268 206.447 14.5601L203.407 15.9601C202.927 14.8401 202.207 13.9601 201.247 13.3201C200.287 12.6534 199.207 12.3201 198.007 12.3201C196.914 12.3201 196.047 12.6001 195.407 13.1601C194.767 13.6934 194.447 14.3734 194.447 15.2001C194.447 15.8134 194.607 16.3201 194.927 16.7201C195.247 17.0934 195.634 17.3868 196.087 17.6001C196.541 17.7868 196.981 17.9468 197.407 18.0801L200.927 19.1201C202.687 19.6268 204.047 20.4134 205.007 21.4801C205.994 22.5468 206.487 23.8268 206.487 25.3201C206.487 26.5201 206.154 27.6001 205.487 28.5601C204.821 29.5201 203.901 30.2668 202.727 30.8001C201.554 31.3335 200.194 31.6001 198.647 31.6001Z" fill="#09090A"/>
</svg>
