<svg width="14" height="8" viewBox="0 0 14 8" fill="none" xmlns="http://www.w3.org/2000/svg">
<path d="M13.5932 0.194861C14.0378 0.522371 14.1328 1.14837 13.8053 1.59306C13.5509 1.93847 13.2965 2.2668 13.0733 2.5528C12.6278 3.1236 12.0145 3.8882 11.3481 4.6556C10.6861 5.4181 9.95204 6.2064 9.26684 6.8119C8.92534 7.1136 8.57234 7.3911 8.22814 7.5986C7.91144 7.7895 7.47624 8 7.00014 8C6.52404 8 6.08874 7.7895 5.77204 7.5986C5.42784 7.3911 5.07494 7.1136 4.73344 6.8119C4.04815 6.2064 3.31411 5.4181 2.65207 4.6556C1.98572 3.8882 1.3724 3.1236 0.926884 2.5528C0.703714 2.2668 0.449264 1.93847 0.194874 1.59307C-0.132636 1.14837 -0.0376465 0.522371 0.407044 0.194861C0.585804 0.0632008 0.793864 -0.000169659 1.00006 3.4111e-07H7.00014H13.0001C13.2063 -0.000169659 13.4144 0.0632008 13.5932 0.194861Z" fill="#8F8881"/>
</svg>
